name D:\school\WTK\thesis\model\3dpredictsim\Results\Batchsim_tmt_linear_v2\Pog_s1_tmt_aCst_d00_k2000_ig24_act.mot
datacolumns 128
datarows 4
range 1.75952131 1.79471174
endheader
time	pelvis_tilt	pelvis_list	pelvis_rotation	pelvis_tx	pelvis_ty	pelvis_tz	hip_flexion_l	hip_adduction_l	hip_rotation_l	hip_flexion_r	hip_adduction_r	hip_rotation_r	knee_angle_l	knee_angle_r	ankle_angle_l	ankle_angle_r	subtalar_angle_l	subtalar_angle_r	tmt_angle_l	tmt_angle_r	mtp_angle_l	mtp_angle_r	lumbar_extension	lumbar_bending	lumbar_rotation	arm_flex_l	arm_add_l	arm_rot_l	arm_flex_r	arm_add_r	arm_rot_r	elbow_flex_l	elbow_flex_r	pro_sup_l	pro_sup_r	glut_med1_l/activation	glut_med2_l/activation	glut_med3_l/activation	glut_min1_l/activation	glut_min2_l/activation	glut_min3_l/activation	semimem_l/activation	semiten_l/activation	bifemlh_l/activation	bifemsh_l/activation	sar_l/activation	add_long_l/activation	add_brev_l/activation	add_mag1_l/activation	add_mag2_l/activation	add_mag3_l/activation	tfl_l/activation	pect_l/activation	grac_l/activation	glut_max1_l/activation	glut_max2_l/activation	glut_max3_l/activation	iliacus_l/activation	psoas_l/activation	quad_fem_l/activation	gem_l/activation	peri_l/activation	rect_fem_l/activation	vas_med_l/activation	vas_int_l/activation	vas_lat_l/activation	med_gas_l/activation	lat_gas_l/activation	soleus_l/activation	tib_post_l/activation	flex_dig_l/activation	flex_hal_l/activation	tib_ant_l/activation	per_brev_l/activation	per_long_l/activation	per_tert_l/activation	ext_dig_l/activation	ext_hal_l/activation	ercspn_l/activation	intobl_l/activation	extobl_l/activation	glut_med1_r/activation	glut_med2_r/activation	glut_med3_r/activation	glut_min1_r/activation	glut_min2_r/activation	glut_min3_r/activation	semimem_r/activation	semiten_r/activation	bifemlh_r/activation	bifemsh_r/activation	sar_r/activation	add_long_r/activation	add_brev_r/activation	add_mag1_r/activation	add_mag2_r/activation	add_mag3_r/activation	tfl_r/activation	pect_r/activation	grac_r/activation	glut_max1_r/activation	glut_max2_r/activation	glut_max3_r/activation	iliacus_r/activation	psoas_r/activation	quad_fem_r/activation	gem_r/activation	peri_r/activation	rect_fem_r/activation	vas_med_r/activation	vas_int_r/activation	vas_lat_r/activation	med_gas_r/activation	lat_gas_r/activation	soleus_r/activation	tib_post_r/activation	flex_dig_r/activation	flex_hal_r/activation	tib_ant_r/activation	per_brev_r/activation	per_long_r/activation	per_tert_r/activation	ext_dig_r/activation	ext_hal_r/activation	ercspn_r/activation	intobl_r/activation	extobl_r/activation	
          1.75952131	         -0.24937433	         -1.83101472	         -9.71784753	          2.19940164	          0.87766101	          0.00458419	         29.46636393	         -3.30284340	          0.64898041	        -17.88727020	          0.05593899	          6.74131234	        -15.02347462	        -15.43084456	        -29.97181269	        -23.10121948	          0.58522064	          4.76991491	         -0.02154979	          0.43491591	         -0.52634498	         39.87499783	          1.21283140	          5.43671429	          2.33250124	        -20.73470041	        -13.46277946	         14.53873948	          1.22676694	        -13.52571224	          8.81122766	         24.35675530	         34.27629949	         86.51662706	         86.51662706	          0.06016695	          0.08608909	          0.12492740	          0.05977320	          0.05968288	          0.05014209	          0.10679931	          0.08539389	          0.08543291	          0.09394070	          0.05977647	          0.08543232	          0.12491344	          0.18534091	          0.17925641	          0.13797869	          0.05000155	          0.05026299	          0.10023416	          0.09803512	          0.13228332	          0.15380114	          0.08800162	          0.08676350	          0.11946464	          0.05007240	          0.07926764	          0.05000044	          0.05000227	          0.05000313	          0.05000275	          0.06577277	          0.07021283	          0.05976878	          0.06651045	          0.06448110	          0.08186104	          0.05041071	          0.13316912	          0.11542796	          0.13705423	          0.06054591	          0.05859206	          0.05000014	          0.15686376	          0.12575497	          0.18120982	          0.05000248	          0.05004449	          0.18302884	          0.09647232	          0.05000334	          0.05857156	          0.05000214	          0.05000326	          0.05000129	          0.07430650	          0.30069164	          0.27718688	          0.23178366	          0.05001477	          0.05000401	          0.13035201	          0.16525223	          0.07146261	          0.05001202	          0.05000700	          0.05000622	          0.28529192	          0.42143313	          0.07146335	          0.05983701	          0.05670321	          0.17276143	          0.07473331	          0.08437607	          0.06393221	          0.05000129	          0.08418442	          0.17593044	          0.12210152	          0.10120211	          0.11641659	          0.12938431	          0.27229966	          0.20216589	          0.50852480	          0.49567349	          0.14904201	          0.05654565	          0.05000343	          0.05654273	
          1.77125146	         -0.21605039	         -1.97144939	         -9.69745220	          2.21917864	          0.87698734	          0.00419518	         29.10712442	         -3.16610436	          0.86009303	        -17.53527212	         -0.03494403	          6.49928383	        -15.92546378	        -17.55205901	        -28.49679078	        -25.71807719	          0.58182255	          5.33938242	         -0.01193959	          0.33959272	         -0.07374088	         39.33840379	          1.50146888	          5.23753044	          2.42691571	        -22.49576693	        -13.44976077	         14.80890691	          1.02591869	        -13.57139473	          9.38016236	         24.78219414	         34.79638817	         86.51662706	         86.51662706	          0.13966389	          0.07250290	          0.13834389	          0.05000098	          0.05000098	          0.05000129	          0.08933428	          0.07142948	          0.07146198	          0.07857852	          0.05000151	          0.07146256	          0.10448654	          0.15989178	          0.15740928	          0.12031666	          0.05000037	          0.05000661	          0.08384348	          0.10346216	          0.13314496	          0.12865279	          0.07361068	          0.07257510	          0.17168135	          0.05000240	          0.06814271	          0.05000006	          0.08556933	          0.08930713	          0.08753840	          0.05501688	          0.05873086	          0.05000044	          0.05563398	          0.05393664	          0.06847437	          0.07543983	          0.11139201	          0.09655193	          0.30870248	          0.08543478	          0.08543407	          0.05000009	          0.13121160	          0.10519008	          0.15157649	          0.05000174	          0.05000107	          0.15309806	          0.08069630	          0.05001164	          0.09031111	          0.05000073	          0.05000117	          0.05000068	          0.06215574	          0.25151937	          0.29118143	          0.19388020	          0.05951672	          0.05004931	          0.10903548	          0.13822944	          0.05977744	          0.05001515	          0.05001398	          0.05003548	          0.23863773	          0.35251564	          0.05977716	          0.05005329	          0.05000120	          0.14450950	          0.06251227	          0.07057813	          0.05347744	          0.05000156	          0.07041817	          0.15714875	          0.10213410	          0.08465271	          0.09737893	          0.20863651	          0.29557218	          0.19916599	          0.67555949	          0.61897400	          0.12466924	          0.05510598	          0.05000008	          0.05603916	
          1.78298160	         -0.17655178	         -2.09819748	         -9.63245466	          2.23890357	          0.87573718	          0.00378472	         28.61690941	         -2.96356430	          1.09238956	        -16.98264741	         -0.09854893	          6.27451565	        -17.33810914	        -20.09638230	        -26.21323051	        -27.68354369	          0.62906302	          5.89850064	          0.07122099	          0.27545857	          1.32902027	         37.21700994	          1.77656355	          5.00060004	          2.50895012	        -24.15081896	        -13.45476760	         15.17645785	          0.81955290	        -13.62936322	          9.92324421	         25.03835266	         35.27461374	         86.51662706	         86.51662706	          0.11682495	          0.13729387	          0.26830124	          0.05004704	          0.05009056	          0.10336938	          0.07472533	          0.05974859	          0.05977572	          0.06572854	          0.05000202	          0.05977649	          0.08739986	          0.13374462	          0.13166809	          0.10064123	          0.08269127	          0.05001852	          0.07013269	          0.09426908	          0.12234982	          0.10761412	          0.06157334	          0.06070717	          0.14360692	          0.05046077	          0.22783884	          0.09227243	          0.28656408	          0.27016031	          0.25110705	          0.05000004	          0.05000006	          0.05000006	          0.23850655	          0.33268982	          0.38625797	          0.06310305	          0.14597650	          0.14597258	          0.25821994	          0.07146354	          0.07146302	          0.05000005	          0.10975438	          0.08798821	          0.12678905	          0.05000050	          0.05000026	          0.12806193	          0.06750016	          0.05000056	          0.13809028	          0.05000093	          0.05000203	          0.05000033	          0.05199236	          0.21038910	          0.31710293	          0.44288604	          0.05001067	          0.15526559	          0.09120482	          0.11562552	          0.05000288	          0.05000619	          0.05000367	          0.05000328	          0.19961296	          0.29486825	          0.05000196	          0.05000428	          0.05000091	          0.12087764	          0.05229262	          0.07141404	          0.05000823	          0.05178163	          0.05979514	          0.13145026	          0.08543198	          0.07080978	          0.08145454	          0.24006833	          0.30056460	          0.18976854	          0.60685769	          0.75558233	          0.33038957	          0.05364440	          0.06470379	          0.09066756	
          1.79471174	         -0.13643437	         -2.20179619	         -9.52014842	          2.25836237	          0.87423776	          0.00334245	         27.85749359	         -2.70262144	          1.34472633	        -16.21304003	         -0.14394902	          6.06358909	        -18.90466299	        -22.99509924	        -23.02193828	        -29.15308498	          0.76172850	          6.43747169	          0.18431432	          0.20324676	          3.54619521	         33.55659959	          2.02602846	          4.72307811	          2.57699618	        -25.63162478	        -13.46370127	         15.65458285	          0.64536079	        -13.68099298	         10.44570897	         25.06327311	         35.65146189	         86.51662706	         86.51662706	          0.17409905	          0.27970412	          0.45559037	          0.05004309	          0.07638670	          0.17784241	          0.06250547	          0.05000031	          0.05000084	          0.05498013	          0.07146258	          0.05000167	          0.07310736	          0.11187345	          0.11013698	          0.11787590	          0.06916871	          0.05000826	          0.05866413	          0.17222384	          0.17204304	          0.09001625	          0.05150453	          0.05077977	          0.12012348	          0.12208172	          0.28586098	          0.07718300	          0.23970286	          0.22598184	          0.26566614	          0.14597308	          0.20101956	          0.10213430	          0.29275475	          0.41175942	          0.34517337	          0.05278372	          0.12210480	          0.12210149	          0.21599287	          0.05977701	          0.05977662	          0.05000003	          0.09180609	          0.07359940	          0.12210475	          0.05000117	          0.05000064	          0.10711997	          0.05646215	          0.05000242	          0.18946491	          0.05858693	          0.11552880	          0.05000032	          0.05000115	          0.17598391	          0.42261081	          0.37046054	          0.14882033	          0.14591102	          0.07629007	          0.09671842	          0.05001342	          0.05001510	          0.05009225	          0.08547728	          0.16696997	          0.24664802	          0.05000295	          0.05000245	          0.05000063	          0.10111034	          0.07145739	          0.05973671	          0.06529839	          0.08647984	          0.05001807	          0.10995485	          0.07146120	          0.05923115	          0.06813441	          0.30830840	          0.28847763	          0.18155662	          0.50761945	          0.82369315	          0.27636061	          0.06271813	          0.05420232	          0.07584064	
